#tb 0: 1/25
0,          9,          9,        1,   622080, 0x4440caef
0,         10,         10,        1,   622080, 0xa5cea88b
0,         11,         11,        1,   622080, 0xce67e69d
0,         12,         12,        1,   622080, 0x9a57891f
0,         13,         13,        1,   622080, 0xc171c0c5
0,         14,         14,        1,   622080, 0x20db9890
0,         15,         15,        1,   622080, 0xdb181d52
0,         16,         16,        1,   622080, 0xc2b913d1
0,         17,         17,        1,   622080, 0xf1d9c5fb
0,         18,         18,        1,   622080, 0x669c5775
0,         19,         19,        1,   622080, 0x01921a16
0,         20,         20,        1,   622080, 0xd5047bc9
0,         21,         21,        1,   622080, 0xa8b006eb
0,         22,         22,        1,   622080, 0xf0e125a7
0,         23,         23,        1,   622080, 0x4afe2976
0,         24,         24,        1,   622080, 0x637fcbfe
0,         25,         25,        1,   622080, 0xd9a8f5ac
0,         26,         26,        1,   622080, 0x4540039f
0,         27,         27,        1,   622080, 0x3039906f
0,         28,         28,        1,   622080, 0x52872cf9
0,         29,         29,        1,   622080, 0x82de12ee
0,         30,         30,        1,   622080, 0x7e849cc9
0,         31,         31,        1,   622080, 0xffe6f770
0,         32,         32,        1,   622080, 0xb67f3233
0,         33,         33,        1,   622080, 0x15fe44b4
0,         34,         34,        1,   622080, 0x380f8563
0,         35,         35,        1,   622080, 0xb964d70f
0,         36,         36,        1,   622080, 0x4f60f7f4
0,         37,         37,        1,   622080, 0xd0afb742
0,         38,         38,        1,   622080, 0xb9a15294
0,         39,         39,        1,   622080, 0xb70b01a9
0,         40,         40,        1,   622080, 0xcb3a371f
0,         41,         41,        1,   622080, 0x82dfb1f2
